<svg id="Layer_1" data-name="Layer 1" xmlns="http://www.w3.org/2000/svg" viewBox="0 0 660.95 298.86"><path d="M237,233.05l7.12-3.28.42.8-4.66,4.13c11.51,7.94,23.92,12.54,37.63,11.16,12.94-1.3,25.74-4,39.26-6.25-2.4,1.26-4.28,2.79-6.39,3.27-13.73,3.13-27.41,6.68-41.3,8.84-12.87,2-25.13-1.4-36.21-8.27-3.22-2-5.84-1.84-9.25-.42-29.76,12.41-59.51,13.77-88.3-2.39-9-5.06-16.69-12.52-24.93-18.94-2.22-1.72-4.27-3.67-6.64-5.72-1.28,1.19-2.46,2.26-3.62,3.35-16.87,15.89-36,27.77-58.92,32.75a45.35,45.35,0,0,1-15.85.29C7.33,249.79-3.1,233.61.82,214.62c3.72-18,16.24-28.37,32.19-35.28,17.51-7.6,34.24-4.39,50.06,4.91,6.41,3.77,12.21,8.58,18.25,13,1.73,1.26,3.32,2.71,5.55,4.53,11.58-19.88,18.21-41.18,24.87-63-8.43-3.11-16.85-3.34-25.17-2.15-6,.87-11.92,2.91-17.75,4.82-4.82,1.59-8.17,5.38-8.11,10.32.05,4.43-2.28,5.72-5.4,7-1.83.76-3.68,1.45-5.86,2.31-1.6-6.08.92-10.77,5.4-13.33A236.5,236.5,0,0,1,102,134.5a61,61,0,0,1,27.37-4.35c3.64.25,4.87-1.11,5.81-4.37,5.49-19.11,11.18-38.17,16.87-57.22.71-2.36,1.79-4.61,3.08-7.85-3.84,1-7,1.57-10,2.69-9.48,3.52-19,7-28.26,11-5.44,2.38-10.84,5.44-10.91,12.83,0,.91-1.55,2.05-2.62,2.64-2.43,1.35-5,2.42-7.83,3.74-1.71-3.46-.34-5.62,1.71-7.76,7-7.22,15.75-11.67,24.69-15.64,9.39-4.18,19-7.95,28.76-11.19,4.48-1.49,7.26-3.65,9.42-7.84,10.22-19.88,24.72-35.66,45.24-45.37,10.8-5.11,22.07-7,34-5,14,2.37,18.6,12.11,11.42,24.37-3.83,6.55-9.89,10.69-16.33,14.25-14.42,8-30.13,12.1-46.21,15.06-1.93.35-3.84.82-5.58,1.2,1.88,14.14,3.85,27.89,5.51,41.68,1.73,14.5,3.14,29,4.73,43.54.69,6.28.82,6.37,6.92,6.36a42.35,42.35,0,0,0,24-7.09,237,237,0,0,1,28-15.71c-18.77,9.58-34.24,25.69-57.09,28.38C201.27,184.06,211.42,212.46,237,233.05ZM112.46,207c19.54,19.23,40.28,37.34,70.17,38.74,14.65.68,29.34.8,43.39-5.82-19.06-17.76-26.09-27-33.12-47.07-4.05-11.52-6.69-23.55-9.62-35.43-.8-3.21-2-4.61-5.34-5.35-8.23-1.84-16.35-4.19-24.45-6.54-4.08-1.18-8-2.83-12-4.24-4.2,11.45-7.68,22.71-12.42,33.42C124.31,185.53,118.26,195.84,112.46,207ZM99.71,212c-10.28-9.66-20.36-18.31-32.47-24.13a61.74,61.74,0,0,0-14.45-5.27c-19.83-4-27.14-1.53-36.83,15.54A34.36,34.36,0,0,0,12.46,209c-2.86,16,4.07,30.17,17.23,35.53a36.29,36.29,0,0,0,20.58,1.93C71.82,242.53,86.32,228.57,99.71,212Zm82.4-160.7c2.91-.51,6.5-1,10-1.78,10.36-2.25,20.78-4.26,31-7a26,26,0,0,0,17.4-15.21c3.77-8.54,1.53-15.09-7.22-18.51-11.76-4.61-23.61-4.33-34.24,3-11.54,7.93-19.48,19.14-25.75,30.59Zm-1.67,93.3a10,10,0,0,0,.37-2.12c-2.29-20.08-4.48-40.17-7-60.23-.88-7.05-2.4-14-3.84-21-.24-1.15-1.59-2.06-2.43-3.08-1,.93-2.11,1.79-3,2.8a5.09,5.09,0,0,0-.71,1.84c-3.51,10.87-7.25,21.66-10.45,32.62-3.47,11.89-6.44,23.92-9.74,36.29ZM244.1,246.33l-.06-.64c-6.24-4.62-13-8.68-18.63-14-17-16-26-36.5-32.37-58.47-7.07-24.56-8.28-50-11.23-75.15C180.1,83.5,177.29,69,174.57,54.53c-.9-4.81-2.23-5-6-3.49,1.81,5.52,4.45,10.85,5.24,16.44,3.31,23.29,6.18,46.66,9,70,2.25,18.65,5.44,37.1,12.12,54.72,8.17,21.52,20.75,39.65,41.67,50.82C239,244.32,241.6,245.24,244.1,246.33Zm-96.34-2,.59-1.08c-17.33-9-30.91-22.54-45.13-35.45-7.93-7.21-17.07-13.13-25.89-19.31-3-2.1-6.69-3.2-10.06-4.76l-.56,1c18.34,9,32.18,23.65,47.3,36.71,7,6.06,14.48,11.65,22,17C139.57,241,143.83,242.43,147.76,244.35Zm-126,4a27.85,27.85,0,0,1-13-16.52c-1.87-6.66-2.47-13.68-3.5-19.76C-.71,223.26,3.51,245.17,21.73,248.33ZM245.55,21.78c4.58-8,1.17-13.67-9.54-14.86A19.65,19.65,0,0,1,245.55,21.78Z"/><path d="M315.72,293.75c-4.75,1.67-9.39,3.86-14.27,4.84s-9.35-.6-11.92-5.31a14.59,14.59,0,0,1,.12-14.74c4.9-8.88,18-14.23,27.61-10.77,4.91,1.78,9.37,4.81,14.53,7.54,8.68-16.07,9.59-35.13,17.32-52.47h-4.73c.55-.51.75-.71,1-.89,2.54-2.2,5.69-4,7.51-6.69,5.49-8.12,12.26-14.51,21.78-17.25a27.87,27.87,0,0,1,10.77-.69c5.79.7,7.47,4.77,4.26,9.67a17.33,17.33,0,0,1-4.6,4.43c-7.26,5.07-15.56,7.39-24.2,8.48-3.94.5-6.27,2-7.26,6.07-2.19,8.84-4.35,17.73-7.23,26.35-3,9.07-6.89,17.85-10.69,27.53,6.16,6.12,13.19,12.56,23.21,14.31,9.62,1.69,18.86.93,27-5.27-5.37,6-17.16,9.83-28.48,9.75s-19.63-6.29-27.31-13.57l-12.72,8.2,9.74-10c-4.26-5.46-12.84-11.55-18.26-12.24-3.09-.4-6.87-.32-9.43,1.13-4.3,2.42-5.6,9.5-3.81,14.79a11.53,11.53,0,0,0,11.77,8.1A64.1,64.1,0,0,0,315.72,293.75ZM357,216.67l1,1.48c6.41-1.33,12.85-2.54,19.22-4.07a10.72,10.72,0,0,0,4.6-2.76c4-3.81,2.7-8.79-2.63-10.18-4.7-1.21-9.35-.95-12.72,3.11S360.1,212.52,357,216.67Zm-9.9,77.69c-5.05-4.27-10.21-8.42-15.14-12.83-8.47-7.56-12.21-9.94-17.41-10C327.1,277.7,334.2,290.18,347.05,294.36Zm-56-12.58c-3.79,7.93-.7,14.24,7.78,14.74C293.11,292.69,291.51,287.53,291,281.78Zm48.49-21.57,1.22.57,8.13-29.55-1.21-.33Q343.56,245.55,339.5,260.21Z"/><path d="M559,214.13c-5.32,1.62-10.55,3.68-16,4.73-4.27.82-6.73,2.44-7.81,6.81-1.89,7.66-4.28,15.2-6.63,23.41,10.87,2.59,20.35,9.51,31.54,3.42-10.19,8.83-21.13,6.71-32.68,1.86-5.28,15.83-12.37,30.06-28,37.85,12.62-10.25,17.9-24.33,21.87-40.81-5.46.57-10,.9-14.43,1.61a4.12,4.12,0,0,0-2.85,2.45c-.72,4.13-3.88,5-7.26,6-1.19-3.39,1.24-5.25,3.44-6.22,6.17-2.71,12.6-4.82,18.87-7.31,1.49-.6,3.58-1.51,4-2.73,2.44-7.51,4.48-15.15,6.84-23.38l-7.45,2c.19-.42.24-.79.39-.83,6.39-1.91,10.18-6.47,14-11.78,6.47-9,15.08-15.43,27-15.32a18,18,0,0,1,4.91.7c4,1.2,5.32,3.82,3.57,7.66-2.62,5.74-7.81,8.27-13.5,10,2.11-2.25,4.61-4.26,6.2-6.83,1.39-2.22.9-4.74-1.82-6.36-4.35-2.58-10.67-2.52-14.52.78-4.57,3.93-7.33,9.14-10,15.2Zm-38.53,47.28c6.2-9.74,6.39-21.25,10.35-31.71l-1.59-.45Z"/><path d="M632.07,258.38c-.17-5.46-.36-10.91-.5-16.37-.06-2.61-.23-5.37-3.55-5.56-3.5-.21-7.4,1-7.91,4.61-.79,5.66-.37,11.51-.11,17.26,0,1.06,1.81,2,3.11,3.4H609.39c4.46-5.66,4.07-19-.73-24.33,6.8-3.89,9.53-4.06,11.74-.45,6.21-3.42,12.53-5.56,17.88.24,4-1.24,7.55-3,11.21-3.31,6-.59,9,2.34,9.31,8.37.23,4.14-.17,8.32.15,12.44.19,2.34,1.27,4.6,2,7.08H649.22c.76-2.4,2-4.78,2.18-7.24.32-4.12,0-8.29-.08-12.43-.05-2.85-.58-5.44-4-5.91-2.71-.37-7.87,3.08-8,5.57-.22,5.3-.25,10.63,0,15.92.07,1.3,1.7,2.52,2.82,4.07H628.81l3.34-3.52c1.63,3.28,2.58,1.11,2.6-.57.08-6.27-.13-12.55-.38-18.82,0-.64-1-1.23-1.47-1.74,0,3.64.11,7.07,0,10.5C632.73,251.19,632.35,254.78,632.07,258.38Zm21.45-21.49-1,.14V259.8l1.58-.06C654.52,252.1,655.36,244.44,653.52,236.89Zm-40.59,22.52c3.8-4.6,2.93-18.57,0-20.71Z"/><path d="M438.43,255.33c2-6.13,9.26-11.36,2.05-18.66h9.95l-14,29-1.44-.11-7.53-15.64c-1.9,4.35-3.31,7.89-5,11.29a24.59,24.59,0,0,1-3.17,4,24.8,24.8,0,0,1-2.8-3.74c-2.32-4.77-4.36-9.67-6.72-14.42-1.73-3.48-3.78-6.8-5.8-10.39h12.8c-3.27,7.54,3.76,12,4.93,18.95,6.79-7.49,3.34-13.06-2.35-18.94h15.51c-3.71,2.11-2.91,4.91-1.45,7.92C435.14,248.18,436.76,251.76,438.43,255.33Zm-29.62-17-1.43.67,11.17,24.16,1.41-.66C416.6,254.28,413.22,246.07,408.81,238.33Zm25.93,24.38,1.66-.63c-3.5-8-6.74-16.1-11.41-23.51l-1.21.6Q429.26,250.95,434.74,262.71Z"/><path d="M433.38,141.26l12.19-3.5V158.5c3.07-1.14,5.45-2.35,8-2.9,7.1-1.54,11.69,2.21,11.8,9.44,0,4-.27,8,.12,11.93.22,2.21,1.56,4.3,2.44,6.57H453.17c4.8-1.8,4.63-5.26,4.48-8.83s-.06-7,0-10.45c0-3-.36-5.8-4.08-6.28-2.86-.37-7.78,3-7.9,5.6a123.79,123.79,0,0,0,.07,15.41c.12,1.52,2.07,2.9,3.37,4.59h-13.5c.77-2.33,2.09-4.59,2.16-6.89.26-8.42.11-16.85.11-25.28C437.84,145.7,437.84,145.7,433.38,141.26Zm7,40.05c.28-.58.8-1.16.8-1.74.06-11.09.16-22.19-.05-33.27,0-1.44-1.73-2.84-3-4.83C440.32,155.43,438.48,168.41,440.34,181.31Zm18.44-22.63v23.13C462.43,177.14,462.09,162.39,458.78,158.68Z"/><path d="M268.22,142.86c-1.6-1.45-1.68-1.68-.54-2.07,3.1-1.06,6.26-1.91,10.14-3.07V158.5c2.69-1,4.59-1.75,6.53-2.41,7.82-2.67,13.31,1.11,13.38,9.21,0,3.48,0,7,0,10.46,0,4.94,0,4.94,4.18,8.24-4.11,0-7.53,0-10.94,0-1.41,0-2.83-.15-4.63-.26,3.7-3,3.7-3,3.72-7.56,0-4,0-8,0-12,0-3-.35-5.81-4.13-6.24-3-.35-7.63,2.83-7.77,5.7a118.56,118.56,0,0,0,.1,15.43c.12,1.49,2.15,2.83,3.5,4.48H267.18c4-1.33,3.33-4.54,3.33-7.44,0-8.47.18-16.95-.1-25.41-.09-2.64-1.44-5.24-2.21-7.86,3.49.78,3.43,3.56,3.44,6.23,0,9.58,0,19.17,0,28.76a37.94,37.94,0,0,0,.47,4c.82-1,1.36-1.39,1.36-1.76.09-11.39.28-22.78.07-34.17C273.51,143,271.28,141.67,268.22,142.86Zm23.09,15.87V182C294.8,177.37,294.35,162.05,291.31,158.73Z"/><path d="M318.23,156.43c-2.79,4-1.72,7.88,4.78,18.23,4.95-6.52,4.9-7-2.16-18.25h15c-4.35,2.05-3.09,4.88-1.57,7.91,1.68,3.38,3.17,6.86,4.8,10.43,5.63-6.52,6.68-13.34,2.4-18.2h11.27c-6.95,6-8.37,14.39-11.92,21.69a39.4,39.4,0,0,1-1.74,4.1,14.8,14.8,0,0,1-2.68,2.55,12.93,12.93,0,0,1-2.13-2.47c-1.94-4-3.74-8.07-5.94-12.86l-7.88,17a48.48,48.48,0,0,1-2.83-4.47c-2.52-5.4-4.85-10.9-7.49-16.24-1.56-3.17-3.57-6.11-5.52-9.38Zm.92,26,1.37-.67c-3.2-8.1-6.52-16.14-10.93-23.66l-1.38.66ZM326.23,158l-1.68.79,11.16,23.9,1.75-.83Z"/><path d="M399.65,263.09c-3.52,3.45-5.46,3.48-10-.55-2.46.95-4.92,2.68-7.33,2.61s-5.64-1.29-7.11-3.12c-1.86-2.32-.87-5.59,1.69-7.47,2.92-2.15,6.13-3.91,9.25-5.78,3.35-2,4.9-5.61,3.09-8.71-.72-1.24-2.79-2-4.37-2.26-.6-.1-1.66,1.84-2.24,3-.35.67.1,2.17-.27,2.35a45.3,45.3,0,0,1-5.43,1.91c-.22-1.56-1.12-3.47-.54-4.63,1.89-3.74,9.54-5.68,14.93-4.21,4.21,1.15,5.89,3.84,5.94,9.65,0,3.65-.22,7.33.1,10.95C397.52,258.69,398.65,260.47,399.65,263.09Zm-10-12.76-1.6-1c-1.85,2.42-4.06,4.66-5.35,7.34-.42.87,1.57,2.9,2.45,4.4,1.5-1.14,3.82-2,4.31-3.49C390.23,255.39,389.68,252.77,389.68,250.33Zm3.58,13.13-1-24.25-1.8.14C391.45,247.4,388.87,255.72,393.26,263.46Z"/><path d="M384.45,169.91a14.76,14.76,0,0,1-14.34,14.88A14.34,14.34,0,0,1,355,170.32a14.93,14.93,0,0,1,14.82-15A14.61,14.61,0,0,1,384.45,169.91Zm-21.86-.27c1.1,3.35,1.82,7.49,3.77,10.93,2.13,3.78,6.34,3.38,8.14-.6a22.2,22.2,0,0,0-.64-20c-2.12-4.08-6.95-3.88-8.92.32C363.73,162.86,363.48,165.91,362.59,169.64Zm-3.3-7c-4.82,6.39-3.6,14.27,3.18,18.16C357.74,175,357.61,169,359.29,162.65ZM377,178.33c3.36-5.52,3.15-11,0-17.25Z"/><path d="M243.51,174a30.86,30.86,0,0,0,2.88,3.44c1.94,1.74,3.83,3.87,6.16,4.72,1.46.54,3.66-1,5.54-1.55-.95-1.64-1.53-3.79-2.93-4.81-2.79-2-6.07-3.36-9.08-5.11-3.16-1.82-4.82-4.5-4.14-8.27s3-6.14,6.57-6.51a26,26,0,0,1,10.22.65c4,1.25,2.54,4.84,1.24,8.47a56.7,56.7,0,0,0-4-4.71c-1.17-1.12-2.61-2.48-4.06-2.65-1.67-.21-3.48.77-5.22,1.24.74,1.57,1.07,3.74,2.31,4.58,2.85,1.94,6.17,3.17,9.24,4.81,4.59,2.44,6.27,5.5,5.4,9.51a9.32,9.32,0,0,1-8.71,7,27.76,27.76,0,0,1-10.63-1.8c-4.22-1.74-1.53-5.52-1.82-8.42Zm-.08-11-1.31,1.31c1.79,1.9,3.37,4.07,5.41,5.63s4.68,2.5,6.93,3.9,4.17,3,6.31,4.5c.46-4-2.91-4.79-5.33-6.27C251.14,169.45,245.53,168.62,243.43,163Z"/><path d="M503.43,269.56c-2.77,2.56-5.06,4.34-9,2.45-7-3.33-12.13-2.67-15.62,1.22-3.32,3.7-3.92,10.82-1.29,15.41,3,5.14,8.57,7.19,15.62,5.7l2.21-.52c-4.5,3.75-13.09,5.88-18,4.62-6.65-1.68-10.29-9-8.26-16.28C472.61,269.47,494.13,261.54,503.43,269.56Zm-22.78,27c-6.42-3.65-8.12-8.95-8.5-15.74-2.74,4.59-2.63,8.36-.45,12C473.37,295.55,475.84,297.23,480.65,296.52Z"/><path d="M400.63,159.11c1.48-1.21,2.41-2.56,3.55-2.77,1.75-.32,4.36-.53,5.26.45s1,3.82.29,5.28c-.44.9-3.17,1.33-4.63,1-4.12-1-5-.63-5.22,3.59-.14,3-.05,6,0,9,0,5.5,0,5.5,5.57,8H388.7c6-2.4,3.61-7.62,3.82-11.81.23-4.53,1.12-9.43-4.89-12.79L399,155.09Zm-7.47,1.61v21.62C397.23,176.77,396.28,162.62,393.16,160.72Z"/><path d="M599.21,261.83H583.69c5.35-3.35,3.58-8.18,3.66-12.45s1.49-9.28-4.5-11.53c7.27-4.63,10.43-4.8,12.53-.67,1.16-.94,2.15-2.35,3.38-2.61,1.78-.37,4.38-.6,5.42.38s1.16,4,.37,5.23c-.59,1-3.44,1.21-5,.78-3.63-1-4.72-.56-4.94,3.32-.17,3.14-.06,6.3-.05,9.45C594.56,257.25,594.29,260.94,599.21,261.83Zm-11.09-23v20.68C591.82,254.71,590.89,240.76,588.12,238.8Z"/><path d="M424.24,158.22v23.55l6.76-2.41c-2.05,4.16-6.05,6.36-9.87,5.55-4.25-.91-4.61-4.21-4.64-7.69-.05-5,0-10-.28-14.94-.13-1.91-1.22-3.76-2.22-6.65l9.12-8.5c.3,3.14.54,5.65.79,8.34l7.18,1,0,1Zm-4,25.64.62-.81a46.27,46.27,0,0,1-1.26-6.91c-.18-5.44,0-10.88-.07-16.33,0-1.95-.16-3.9-.28-6.73-1.07,1.27-1.62,1.61-1.62,2-.07,7.9-.24,15.82,0,23.72C417.71,180.49,419.34,182.17,420.24,183.86Z"/><path d="M575.66,233.47c1.93,9.92-1.78,19.62,2.53,28.35H565.88c4-4.94,3.87-19.07-.41-25Zm-6.15,26.15c3.93-5.72,3.09-18.67,0-21Z"/><path d="M572.39,228.72c-2.19-2.88-4.19-4.38-4.49-6.17-.46-2.73,1.31-4.58,4.42-4.52,2.87.05,4.56,1.68,4,4.31C576,224.18,574.31,225.76,572.39,228.72Z"/><path d="M337.48,225.12c-3.71,3.77-7,7.08-11,11.14C326.24,230.85,327.82,229.43,337.48,225.12Z"/><path d="M506,234.21c2.14-4.71,5.53-6.54,9.6-8.14C514.31,230.79,511.81,233.62,506,234.21Z"/></svg>