<svg id="Layer_1" data-name="Layer 1" xmlns="http://www.w3.org/2000/svg" viewBox="0 0 316.74 252.93"><path d="M237,233.05l7.12-3.28.42.8-4.66,4.13c11.51,7.94,23.92,12.54,37.63,11.16,12.94-1.3,25.74-4,39.26-6.25-2.4,1.26-4.28,2.79-6.39,3.27-13.73,3.13-27.41,6.68-41.3,8.84-12.87,2-25.13-1.4-36.21-8.27-3.22-2-5.84-1.84-9.25-.42-29.76,12.41-59.51,13.77-88.3-2.39-9-5.06-16.69-12.52-24.93-18.94-2.22-1.72-4.27-3.67-6.64-5.72-1.28,1.19-2.46,2.26-3.62,3.35-16.87,15.89-36,27.77-58.92,32.75a45.35,45.35,0,0,1-15.85.29C7.33,249.79-3.1,233.61.82,214.62c3.72-18,16.24-28.37,32.19-35.28,17.51-7.6,34.24-4.39,50.06,4.91,6.41,3.77,12.21,8.58,18.25,13,1.73,1.26,3.32,2.71,5.55,4.53,11.58-19.88,18.21-41.18,24.87-63-8.43-3.11-16.85-3.34-25.17-2.15-6,.87-11.92,2.91-17.75,4.82-4.82,1.59-8.17,5.38-8.11,10.32.05,4.43-2.28,5.72-5.4,7-1.83.76-3.68,1.45-5.86,2.31-1.6-6.08.92-10.77,5.4-13.33A236.5,236.5,0,0,1,102,134.5a61,61,0,0,1,27.37-4.35c3.64.25,4.87-1.11,5.81-4.37,5.49-19.11,11.18-38.17,16.87-57.22.71-2.36,1.79-4.61,3.08-7.85-3.84,1-7,1.57-10,2.69-9.48,3.52-19,7-28.26,11-5.44,2.38-10.84,5.44-10.91,12.83,0,.91-1.55,2.05-2.62,2.64-2.43,1.35-5,2.42-7.83,3.74-1.71-3.46-.34-5.62,1.71-7.76,7-7.22,15.75-11.67,24.69-15.64,9.39-4.18,19-7.95,28.76-11.19,4.48-1.49,7.26-3.65,9.42-7.84,10.22-19.88,24.72-35.66,45.24-45.37,10.8-5.11,22.07-7,34-5,14,2.37,18.6,12.11,11.42,24.37-3.83,6.55-9.89,10.69-16.33,14.25-14.42,8-30.13,12.1-46.21,15.06-1.93.35-3.84.82-5.58,1.2,1.88,14.14,3.85,27.89,5.51,41.68,1.73,14.5,3.14,29,4.73,43.54.69,6.28.82,6.37,6.92,6.36a42.35,42.35,0,0,0,24-7.09,237,237,0,0,1,28-15.71c-18.77,9.58-34.24,25.69-57.09,28.38C201.27,184.06,211.42,212.46,237,233.05ZM112.46,207c19.54,19.23,40.28,37.34,70.17,38.74,14.65.68,29.34.8,43.39-5.82-19.06-17.76-26.09-27-33.12-47.07-4.05-11.52-6.69-23.55-9.62-35.43-.8-3.21-2-4.61-5.34-5.35-8.23-1.84-16.35-4.19-24.45-6.54-4.08-1.18-8-2.83-12-4.24-4.2,11.45-7.68,22.71-12.42,33.42C124.31,185.53,118.26,195.84,112.46,207ZM99.71,212c-10.28-9.66-20.36-18.31-32.47-24.13a61.74,61.74,0,0,0-14.45-5.27c-19.83-4-27.14-1.53-36.83,15.54A34.36,34.36,0,0,0,12.46,209c-2.86,16,4.07,30.17,17.23,35.53a36.29,36.29,0,0,0,20.58,1.93C71.82,242.53,86.32,228.57,99.71,212Zm82.4-160.7c2.91-.51,6.5-1,10-1.78,10.36-2.25,20.78-4.26,31-7a26,26,0,0,0,17.4-15.21c3.77-8.54,1.53-15.09-7.22-18.51-11.76-4.61-23.61-4.33-34.24,3-11.54,7.93-19.48,19.14-25.75,30.59Zm-1.67,93.3a10,10,0,0,0,.37-2.12c-2.29-20.08-4.48-40.17-7-60.23-.88-7.05-2.4-14-3.84-21-.24-1.15-1.59-2.06-2.43-3.08-1,.93-2.11,1.79-3,2.8a5.09,5.09,0,0,0-.71,1.84c-3.51,10.87-7.25,21.66-10.45,32.62-3.47,11.89-6.44,23.92-9.74,36.29ZM244.1,246.33l-.06-.64c-6.24-4.62-13-8.68-18.63-14-17-16-26-36.5-32.37-58.47-7.07-24.56-8.28-50-11.23-75.15C180.1,83.5,177.29,69,174.57,54.53c-.9-4.81-2.23-5-6-3.49,1.81,5.52,4.45,10.85,5.24,16.44,3.31,23.29,6.18,46.66,9,70,2.25,18.65,5.44,37.1,12.12,54.72,8.17,21.52,20.75,39.65,41.67,50.82C239,244.32,241.6,245.24,244.1,246.33Zm-96.34-2,.59-1.08c-17.33-9-30.91-22.54-45.13-35.45-7.93-7.21-17.07-13.13-25.89-19.31-3-2.1-6.69-3.2-10.06-4.76l-.56,1c18.34,9,32.18,23.65,47.3,36.71,7,6.06,14.48,11.65,22,17C139.57,241,143.83,242.43,147.76,244.35Zm-126,4a27.85,27.85,0,0,1-13-16.52c-1.87-6.66-2.47-13.68-3.5-19.76C-.71,223.26,3.51,245.17,21.73,248.33ZM245.55,21.78c4.58-8,1.17-13.67-9.54-14.86A19.65,19.65,0,0,1,245.55,21.78Z"/><path d="M268.2,142.87m-.52-2.08"/><path d="M326.53,236.26"/></svg>